<?xml version="1.0" standalone="no"?>
<!DOCTYPE svg PUBLIC "-//W3C//DTD SVG 20010904//EN"
 "http://www.w3.org/TR/2001/REC-SVG-20010904/DTD/svg10.dtd">
<svg version="1.0" xmlns="http://www.w3.org/2000/svg"
 width="700.000000pt" height="700.000000pt" viewBox="0 0 700.000000 700.000000"
 preserveAspectRatio="xMidYMid meet">
<metadata>
Created by potrace 1.14, written by Peter Selinger 2001-2017
</metadata>
<g transform="translate(0.000000,700.000000) scale(0.100000,-0.100000)"
fill="#000000" stroke="none">
<path d="M1940 5731 c-116 -37 -207 -105 -265 -196 -28 -43 -121 -255 -262
-595 -20 -47 -46 -108 -59 -137 -13 -28 -24 -55 -24 -58 0 -4 -7 -21 -15 -38
-8 -18 -50 -117 -94 -222 -73 -176 -81 -190 -112 -204 -199 -85 -304 -179
-378 -336 -66 -138 -64 -108 -66 -917 -2 -406 0 -738 4 -739 3 -1 98 -2 211
-3 l205 -1 2 -125 c5 -362 5 -366 24 -424 39 -113 110 -195 214 -246 76 -38
93 -42 187 -41 124 1 228 48 307 138 99 111 109 158 110 523 l1 176 1171 -1
c644 0 1174 2 1178 5 3 3 7 28 7 55 3 187 46 348 135 515 68 126 183 263 292
347 l29 22 -21 38 c-39 72 -50 124 -48 218 3 77 8 100 35 158 34 74 116 163
180 196 94 48 222 64 307 39 22 -6 42 -12 45 -13 24 -4 106 -55 142 -89 93
-86 129 -172 137 -326 1 -12 22 -19 80 -28 100 -16 204 -51 311 -106 l85 -43
-2 211 c-2 244 -6 291 -29 366 -57 189 -202 345 -390 419 l-61 24 -163 391
c-277 662 -349 828 -377 865 -71 96 -177 166 -288 189 -34 7 -482 11 -1370 11
-1238 0 -1323 -1 -1375 -18z m2694 -361 c33 -34 58 -90 208 -455 27 -66 55
-133 62 -150 29 -63 175 -421 178 -435 3 -12 -221 -14 -1750 -15 -965 0 -1756
3 -1759 8 -4 7 15 57 137 347 27 63 97 230 155 370 132 314 138 326 177 350
31 19 67 19 1295 17 l1263 -2 34 -35z m-2975 -1500 c119 -40 200 -110 256
-223 90 -183 29 -411 -142 -529 -72 -49 -146 -70 -243 -70 -127 1 -214 38
-301 129 -86 89 -122 183 -118 306 5 141 74 263 195 341 101 66 238 83 353 46z"/>
<path d="M5220 3164 c-127 -20 -134 -3 97 -233 114 -113 229 -230 256 -260
l50 -54 -6 -62 c-16 -170 -173 -368 -361 -456 -62 -29 -148 -48 -191 -41 -11
1 -135 118 -275 258 l-255 255 -13 -53 c-22 -85 -19 -307 6 -398 71 -267 260
-477 518 -579 89 -35 201 -53 329 -52 194 0 271 -29 399 -151 44 -43 84 -78
89 -78 18 0 165 177 268 324 44 61 83 116 87 121 23 29 112 185 112 195 0 7
-16 31 -36 53 -20 22 -50 69 -67 106 -30 63 -32 74 -38 236 -7 173 -10 196
-33 276 -119 403 -524 660 -936 593z"/>
</g>
</svg>
