<?xml version="1.0" standalone="no"?>
<!DOCTYPE svg PUBLIC "-//W3C//DTD SVG 1.1//EN" "http://www.w3.org/Graphics/SVG/1.1/DTD/svg11.dtd">
<!--Generator: Xara Designer (www.xara.com), SVG filter version: 6.3.0.9-->
<svg stroke-width="0.501" stroke-linejoin="bevel" fill-rule="evenodd" xmlns:xlink="http://www.w3.org/1999/xlink" xmlns="http://www.w3.org/2000/svg" version="1.1" overflow="visible" width="162pt" height="40.5pt" viewBox="0 0 162 40.5">
 <defs>
	</defs>
 <g id="Document" fill="none" stroke="black" font-family="Times New Roman" font-size="16" transform="scale(1 -1)">
  <g id="Spread" transform="translate(0 -40.5)">
   <g id="Layer 1" style="font-variant-ligatures:none">
    <path d="M 14.139,33.034 L 14.139,7.463 C 14.139,4.172 16.811,1.5 20.102,1.5 L 154.537,1.5 C 157.828,1.5 160.5,4.172 160.5,7.463 L 160.5,33.034 C 160.5,36.325 157.828,38.997 154.537,38.997 L 20.102,38.997 C 16.811,38.997 14.139,36.325 14.139,33.034 Z" stroke-linejoin="miter" stroke="none" fill="#026670" stroke-width="0.006" marker-start="none" marker-end="none" stroke-miterlimit="79.8403193612775"/>
    <path d="M 12.989,37.531 C 22.528,41.54 33.524,37.05 37.532,27.51 C 41.541,17.97 37.051,6.975 27.511,2.967 C 17.971,-1.042 6.976,3.448 2.967,12.988 C -1.041,22.528 3.449,33.523 12.989,37.531 Z" stroke-linejoin="miter" stroke="none" fill="#fce181" stroke-width="0.54" marker-start="none" marker-end="none" stroke-miterlimit="79.8403193612775"/>
    <path d="M 34.008,7.512 L 34.002,7.519 L 33.394,8.126 C 32.911,8.609 32.24,8.858 31.559,8.805 C 30.269,8.705 28.945,9.149 27.958,10.135 C 27.065,11.029 26.622,12.197 26.622,13.367 C 26.622,13.808 26.685,14.249 26.81,14.675 L 29.564,11.923 C 30.96,11.617 32.96,13.641 32.661,15.02 L 29.908,17.773 C 30.334,17.898 30.775,17.961 31.216,17.961 C 32.386,17.961 33.554,17.519 34.449,16.625 C 35.434,15.639 35.878,14.315 35.778,13.025 C 35.726,12.344 35.974,11.672 36.457,11.189 L 36.587,11.06 C 35.873,9.788 35.009,8.596 34.008,7.512 Z M 9.85,8.624 C 8.888,8.865 8.211,9.641 8.11,10.622 C 8.098,10.749 8.087,11.364 8.087,11.99 L 8.087,13.13 L 5.781,13.13 L 5.786,17.07 C 5.795,21.49 5.781,21.154 5.964,21.705 C 6.269,22.632 6.909,23.365 7.777,23.781 C 7.904,23.84 8.089,23.916 8.189,23.948 L 8.37,24.007 L 8.442,24.181 C 8.483,24.276 8.775,24.97 9.089,25.723 C 9.405,26.476 9.973,27.823 10.348,28.719 C 11.178,30.693 11.173,30.684 11.454,31.025 C 11.829,31.484 12.446,31.828 13.05,31.916 C 13.125,31.927 16.364,31.934 20.319,31.931 C 26.869,31.927 27.463,31.925 27.599,31.891 C 28.275,31.719 28.784,31.393 29.145,30.901 C 29.351,30.623 29.29,30.758 30.366,28.194 C 30.561,27.731 30.875,26.978 31.067,26.521 C 31.26,26.062 31.574,25.314 31.768,24.853 L 32.119,24.016 L 32.352,23.93 C 32.813,23.763 33.127,23.582 33.489,23.277 C 34.045,22.807 34.472,22.099 34.63,21.384 C 34.707,21.033 34.72,20.908 34.719,18.476 C 33.925,18.979 33.039,19.279 32.136,19.375 C 32.155,19.683 32.117,20.017 32.026,20.283 C 31.734,21.138 30.97,21.739 30.061,21.834 C 29.935,21.845 29.815,21.855 29.794,21.855 C 29.098,21.798 28.623,21.592 28.198,21.167 C 27.911,20.88 27.733,20.579 27.604,20.161 C 27.549,19.983 27.545,19.937 27.545,19.551 C 27.545,19.16 27.549,19.119 27.608,18.929 C 27.685,18.673 27.789,18.451 27.927,18.251 C 27.677,18.069 27.439,17.865 27.214,17.64 C 25.974,16.401 25.386,14.755 25.449,13.13 L 12.654,13.13 L 12.654,11.977 C 12.654,11.307 12.645,10.731 12.629,10.604 C 12.521,9.634 11.847,8.863 10.891,8.624 C 10.617,8.556 10.124,8.556 9.85,8.624 Z M 11.418,17.425 C 11.931,17.638 12.408,18.117 12.632,18.644 C 12.774,18.974 12.801,19.126 12.799,19.562 C 12.799,19.881 12.79,19.976 12.749,20.121 C 12.489,21.065 11.705,21.732 10.732,21.834 C 10.495,21.859 10.5,21.859 10.251,21.832 C 9.371,21.739 8.603,21.124 8.318,20.283 C 8.139,19.759 8.166,19.139 8.392,18.617 C 8.612,18.11 9.093,17.633 9.595,17.425 C 9.934,17.283 10.072,17.258 10.506,17.258 C 10.94,17.258 11.078,17.283 11.418,17.425 Z M 25.04,24.145 L 29.828,24.152 L 29.62,24.649 C 29.507,24.923 29.218,25.615 28.978,26.187 C 28.739,26.758 28.386,27.604 28.194,28.063 C 27.8,28.999 27.576,29.535 27.52,29.666 C 27.466,29.793 27.298,29.96 27.163,30.021 L 27.045,30.075 L 20.285,30.078 C 16.568,30.08 13.504,30.078 13.479,30.071 C 13.31,30.035 13.131,29.917 13.043,29.786 C 13.007,29.734 12.598,28.78 12.134,27.667 C 11.671,26.555 11.151,25.309 10.979,24.898 L 10.669,24.152 L 15.46,24.145 C 18.094,24.143 22.406,24.143 25.04,24.145 Z" stroke-linejoin="miter" stroke="none" fill-rule="evenodd" fill="#026670" stroke-width="0.726" marker-start="none" marker-end="none" stroke-miterlimit="79.8403193612775"/>
    <path d="M 2.968,12.988 C -1.041,22.528 3.449,33.523 12.989,37.531 C 22.528,41.539 33.524,37.05 37.532,27.51 C 41.54,17.97 37.051,6.975 27.511,2.967 C 17.971,-1.041 6.976,3.448 2.968,12.988 Z M 27.342,3.37 C 36.659,7.285 41.043,18.024 37.129,27.341 C 33.214,36.658 22.475,41.042 13.158,37.128 C 3.841,33.213 -0.544,22.474 3.371,13.157 C 7.286,3.84 18.024,-0.544 27.342,3.37 Z" stroke-linejoin="miter" stroke="none" fill="#fce181" stroke-width="0.54" marker-start="none" marker-end="none" stroke-miterlimit="79.8403193612775"/>
    <path d="M 44.757,8.785 C 44.202,9.121 43.765,9.592 43.448,10.199 C 43.131,10.806 42.972,11.496 42.972,12.271 C 42.972,13.055 43.131,13.743 43.448,14.336 C 43.765,14.929 44.202,15.388 44.757,15.715 C 45.312,16.042 45.935,16.205 46.626,16.205 C 47.223,16.205 47.779,16.067 48.292,15.792 C 48.805,15.517 49.197,15.155 49.468,14.707 L 49.468,18.767 L 50.756,18.767 L 50.756,8.407 L 49.468,8.407 L 49.468,9.849 C 49.216,9.392 48.843,9.016 48.348,8.722 C 47.853,8.428 47.275,8.281 46.612,8.281 C 45.931,8.281 45.312,8.449 44.757,8.785 Z M 54.274,8.771 C 53.7,9.098 53.25,9.562 52.923,10.164 C 52.596,10.766 52.433,11.464 52.433,12.257 C 52.433,13.05 52.592,13.746 52.909,14.343 C 53.226,14.94 53.672,15.4 54.246,15.722 C 54.82,16.044 55.48,16.205 56.227,16.205 C 56.955,16.205 57.599,16.046 58.159,15.729 C 58.719,15.412 59.151,14.975 59.454,14.42 C 59.757,13.865 59.909,13.237 59.909,12.537 C 59.909,12.294 59.895,12.038 59.867,11.767 L 53.735,11.767 C 53.782,11.011 54.041,10.421 54.512,9.996 C 54.983,9.571 55.555,9.359 56.227,9.359 C 56.778,9.359 57.237,9.487 57.606,9.744 C 57.975,10.001 58.234,10.344 58.383,10.773 L 59.755,10.773 C 59.55,10.036 59.139,9.436 58.523,8.974 C 57.907,8.512 57.142,8.281 56.227,8.281 C 55.499,8.281 54.848,8.444 54.274,8.771 Z M 76.156,8.771 C 75.582,9.098 75.132,9.562 74.805,10.164 C 74.478,10.766 74.315,11.464 74.315,12.257 C 74.315,13.05 74.474,13.746 74.791,14.343 C 75.108,14.94 75.554,15.4 76.128,15.722 C 76.702,16.044 77.362,16.205 78.109,16.205 C 78.837,16.205 79.481,16.046 80.041,15.729 C 80.601,15.412 81.033,14.975 81.336,14.42 C 81.639,13.865 81.791,13.237 81.791,12.537 C 81.791,12.294 81.777,12.038 81.749,11.767 L 75.617,11.767 C 75.664,11.011 75.923,10.421 76.394,9.996 C 76.865,9.571 77.437,9.359 78.109,9.359 C 78.66,9.359 79.119,9.487 79.488,9.744 C 79.857,10.001 80.116,10.344 80.265,10.773 L 81.637,10.773 C 81.432,10.036 81.021,9.436 80.405,8.974 C 79.789,8.512 79.024,8.281 78.109,8.281 C 77.381,8.281 76.73,8.444 76.156,8.771 Z M 97.203,8.771 C 96.638,9.098 96.197,9.56 95.88,10.157 C 95.563,10.754 95.404,11.454 95.404,12.257 C 95.404,13.05 95.563,13.743 95.88,14.336 C 96.197,14.929 96.638,15.388 97.203,15.715 C 97.768,16.042 98.414,16.205 99.142,16.205 C 100.085,16.205 100.862,15.976 101.473,15.519 C 102.084,15.062 102.488,14.427 102.684,13.615 L 101.312,13.615 C 101.181,14.082 100.927,14.45 100.549,14.721 C 100.171,14.992 99.702,15.127 99.142,15.127 C 98.414,15.127 97.826,14.877 97.378,14.378 C 96.93,13.879 96.706,13.172 96.706,12.257 C 96.706,11.333 96.93,10.619 97.378,10.115 C 97.826,9.611 98.414,9.359 99.142,9.359 C 99.702,9.359 100.169,9.49 100.542,9.751 C 100.915,10.012 101.172,10.386 101.312,10.871 L 102.684,10.871 C 102.479,10.087 102.068,9.459 101.452,8.988 C 100.836,8.517 100.066,8.281 99.142,8.281 C 98.414,8.281 97.768,8.444 97.203,8.771 Z M 118.177,8.771 C 117.594,9.098 117.136,9.562 116.805,10.164 C 116.474,10.766 116.308,11.464 116.308,12.257 C 116.308,13.041 116.478,13.734 116.819,14.336 C 117.16,14.938 117.624,15.4 118.212,15.722 C 118.8,16.044 119.458,16.205 120.186,16.205 C 120.914,16.205 121.572,16.044 122.16,15.722 C 122.748,15.4 123.212,14.94 123.553,14.343 C 123.894,13.746 124.064,13.05 124.064,12.257 C 124.064,11.464 123.889,10.766 123.539,10.164 C 123.189,9.562 122.715,9.098 122.118,8.771 C 121.521,8.444 120.858,8.281 120.13,8.281 C 119.411,8.281 118.76,8.444 118.177,8.771 Z M 126.88,8.582 C 126.413,8.783 126.045,9.063 125.774,9.422 C 125.503,9.781 125.354,10.194 125.326,10.661 L 126.642,10.661 C 126.679,10.278 126.859,9.966 127.181,9.723 C 127.503,9.48 127.925,9.359 128.448,9.359 C 128.933,9.359 129.316,9.466 129.596,9.681 C 129.876,9.896 130.016,10.166 130.016,10.493 C 130.016,10.829 129.867,11.079 129.568,11.242 C 129.269,11.405 128.807,11.566 128.182,11.725 C 127.613,11.874 127.148,12.026 126.789,12.18 C 126.43,12.334 126.122,12.563 125.865,12.866 C 125.608,13.169 125.48,13.568 125.48,14.063 C 125.48,14.455 125.597,14.814 125.83,15.141 C 126.063,15.468 126.395,15.727 126.824,15.918 C 127.253,16.109 127.743,16.205 128.294,16.205 C 129.143,16.205 129.829,15.99 130.352,15.561 C 130.875,15.132 131.155,14.544 131.192,13.797 L 129.918,13.797 C 129.89,14.198 129.729,14.52 129.435,14.763 C 129.141,15.006 128.747,15.127 128.252,15.127 C 127.795,15.127 127.431,15.029 127.16,14.833 C 126.889,14.637 126.754,14.38 126.754,14.063 C 126.754,13.811 126.836,13.603 126.999,13.44 C 127.162,13.277 127.368,13.146 127.615,13.048 C 127.862,12.95 128.205,12.84 128.644,12.719 C 129.195,12.57 129.643,12.423 129.988,12.278 C 130.333,12.133 130.63,11.916 130.877,11.627 C 131.124,11.338 131.253,10.96 131.262,10.493 C 131.262,10.073 131.145,9.695 130.912,9.359 C 130.679,9.023 130.35,8.759 129.925,8.568 C 129.5,8.377 129.013,8.281 128.462,8.281 C 127.874,8.281 127.347,8.381 126.88,8.582 Z M 105.847,8.666 C 105.371,8.913 104.995,9.284 104.72,9.779 C 104.445,10.274 104.307,10.876 104.307,11.585 L 104.307,16.079 L 105.567,16.079 L 105.567,11.753 C 105.567,10.997 105.758,10.416 106.141,10.01 C 106.524,9.604 107.046,9.401 107.709,9.401 C 108.39,9.401 108.927,9.611 109.319,10.031 C 109.711,10.451 109.907,11.062 109.907,11.865 L 109.907,16.079 L 111.181,16.079 L 111.181,8.407 L 109.907,8.407 L 109.907,9.541 C 109.664,9.149 109.326,8.843 108.892,8.624 C 108.458,8.405 107.98,8.295 107.457,8.295 C 106.86,8.295 106.323,8.419 105.847,8.666 Z M 68.242,8.407 L 64.56,18.165 L 65.918,18.165 L 68.984,9.751 L 72.05,18.165 L 73.394,18.165 L 69.712,8.407 L 68.242,8.407 Z M 83.473,8.407 L 83.473,18.767 L 84.747,18.767 L 84.747,14.987 C 84.999,15.379 85.347,15.682 85.79,15.897 C 86.233,16.112 86.73,16.219 87.281,16.219 C 87.86,16.219 88.382,16.095 88.849,15.848 C 89.316,15.601 89.682,15.23 89.948,14.735 C 90.214,14.24 90.347,13.638 90.347,12.929 L 90.347,8.407 L 89.087,8.407 L 89.087,12.747 C 89.087,13.512 88.896,14.098 88.513,14.504 C 88.13,14.91 87.608,15.113 86.945,15.113 C 86.273,15.113 85.739,14.903 85.342,14.483 C 84.945,14.063 84.747,13.452 84.747,12.649 L 84.747,8.407 L 83.473,8.407 Z M 92.435,8.407 L 92.435,16.079 L 93.709,16.079 L 93.709,8.407 L 92.435,8.407 Z M 113.339,8.407 L 113.339,18.767 L 114.613,18.767 L 114.613,8.407 L 113.339,8.407 Z M 48.173,9.744 C 48.57,9.973 48.885,10.304 49.118,10.738 C 49.351,11.172 49.468,11.678 49.468,12.257 C 49.468,12.836 49.351,13.34 49.118,13.769 C 48.885,14.198 48.57,14.527 48.173,14.756 C 47.776,14.985 47.34,15.099 46.864,15.099 C 46.388,15.099 45.954,14.987 45.562,14.763 C 45.17,14.539 44.857,14.212 44.624,13.783 C 44.391,13.354 44.274,12.85 44.274,12.271 C 44.274,11.683 44.391,11.172 44.624,10.738 C 44.857,10.304 45.17,9.973 45.562,9.744 C 45.954,9.515 46.388,9.401 46.864,9.401 C 47.34,9.401 47.776,9.515 48.173,9.744 Z M 121.418,9.723 C 121.819,9.938 122.144,10.26 122.391,10.689 C 122.638,11.118 122.762,11.641 122.762,12.257 C 122.762,12.873 122.641,13.396 122.398,13.825 C 122.155,14.254 121.838,14.574 121.446,14.784 C 121.054,14.994 120.629,15.099 120.172,15.099 C 119.705,15.099 119.278,14.994 118.891,14.784 C 118.504,14.574 118.193,14.254 117.96,13.825 C 117.727,13.396 117.61,12.873 117.61,12.257 C 117.61,11.632 117.724,11.104 117.953,10.675 C 118.182,10.246 118.487,9.926 118.87,9.716 C 119.253,9.506 119.673,9.401 120.13,9.401 C 120.587,9.401 121.017,9.508 121.418,9.723 Z M 58.271,14.056 C 58.056,14.406 57.765,14.672 57.396,14.854 C 57.027,15.036 56.619,15.127 56.171,15.127 C 55.527,15.127 54.979,14.922 54.526,14.511 C 54.073,14.1 53.814,13.531 53.749,12.803 L 58.593,12.803 C 58.593,13.288 58.486,13.706 58.271,14.056 Z M 80.153,14.056 C 79.938,14.406 79.647,14.672 79.278,14.854 C 78.909,15.036 78.501,15.127 78.053,15.127 C 77.409,15.127 76.861,14.922 76.408,14.511 C 75.955,14.1 75.696,13.531 75.631,12.803 L 80.475,12.803 C 80.475,13.288 80.368,13.706 80.153,14.056 Z M 91.455,16.653 L 91.455,17.605 L 94.437,19.355 L 94.437,18.249 L 91.455,16.653 Z M 56.462,21.942 C 55.911,22.278 55.477,22.749 55.16,23.356 C 54.843,23.963 54.684,24.653 54.684,25.428 C 54.684,26.212 54.843,26.9 55.16,27.493 C 55.477,28.086 55.914,28.545 56.469,28.872 C 57.024,29.199 57.643,29.362 58.324,29.362 C 58.996,29.362 59.579,29.217 60.074,28.928 C 60.569,28.639 60.937,28.275 61.18,27.836 L 61.18,29.236 L 62.468,29.236 L 62.468,21.564 L 61.18,21.564 L 61.18,22.992 C 60.928,22.544 60.552,22.173 60.053,21.879 C 59.554,21.585 58.973,21.438 58.31,21.438 C 57.629,21.438 57.013,21.606 56.462,21.942 Z M 80.041,21.928 C 79.467,22.255 79.017,22.719 78.69,23.321 C 78.363,23.923 78.2,24.621 78.2,25.414 C 78.2,26.207 78.359,26.903 78.676,27.5 C 78.993,28.097 79.439,28.557 80.013,28.879 C 80.587,29.201 81.247,29.362 81.994,29.362 C 82.722,29.362 83.366,29.203 83.926,28.886 C 84.486,28.569 84.918,28.132 85.221,27.577 C 85.524,27.022 85.676,26.394 85.676,25.694 C 85.676,25.451 85.662,25.195 85.634,24.924 L 79.502,24.924 C 79.549,24.168 79.808,23.578 80.279,23.153 C 80.75,22.728 81.322,22.516 81.994,22.516 C 82.545,22.516 83.004,22.644 83.373,22.901 C 83.742,23.158 84.001,23.501 84.15,23.93 L 85.522,23.93 C 85.317,23.193 84.906,22.593 84.29,22.131 C 83.674,21.669 82.909,21.438 81.994,21.438 C 81.266,21.438 80.615,21.601 80.041,21.928 Z M 118.992,21.928 C 118.418,22.255 117.968,22.719 117.641,23.321 C 117.314,23.923 117.151,24.621 117.151,25.414 C 117.151,26.207 117.31,26.903 117.627,27.5 C 117.944,28.097 118.39,28.557 118.964,28.879 C 119.538,29.201 120.198,29.362 120.945,29.362 C 121.673,29.362 122.317,29.203 122.877,28.886 C 123.437,28.569 123.869,28.132 124.172,27.577 C 124.475,27.022 124.627,26.394 124.627,25.694 C 124.627,25.451 124.613,25.195 124.585,24.924 L 118.453,24.924 C 118.5,24.168 118.759,23.578 119.23,23.153 C 119.701,22.728 120.273,22.516 120.945,22.516 C 121.496,22.516 121.955,22.644 122.324,22.901 C 122.693,23.158 122.952,23.501 123.101,23.93 L 124.473,23.93 C 124.268,23.193 123.857,22.593 123.241,22.131 C 122.625,21.669 121.86,21.438 120.945,21.438 C 120.217,21.438 119.566,21.601 118.992,21.928 Z M 141.757,21.928 C 141.174,22.255 140.716,22.719 140.385,23.321 C 140.054,23.923 139.888,24.621 139.888,25.414 C 139.888,26.198 140.058,26.891 140.399,27.493 C 140.74,28.095 141.204,28.557 141.792,28.879 C 142.38,29.201 143.038,29.362 143.766,29.362 C 144.494,29.362 145.152,29.201 145.74,28.879 C 146.328,28.557 146.792,28.097 147.133,27.5 C 147.474,26.903 147.644,26.207 147.644,25.414 C 147.644,24.621 147.469,23.923 147.119,23.321 C 146.769,22.719 146.295,22.255 145.698,21.928 C 145.101,21.601 144.438,21.438 143.71,21.438 C 142.991,21.438 142.34,21.601 141.757,21.928 Z M 150.46,21.739 C 149.993,21.94 149.625,22.22 149.354,22.579 C 149.083,22.938 148.934,23.351 148.906,23.818 L 150.222,23.818 C 150.259,23.435 150.439,23.123 150.761,22.88 C 151.083,22.637 151.505,22.516 152.028,22.516 C 152.513,22.516 152.896,22.623 153.176,22.838 C 153.456,23.053 153.596,23.323 153.596,23.65 C 153.596,23.986 153.447,24.236 153.148,24.399 C 152.849,24.562 152.387,24.723 151.762,24.882 C 151.193,25.031 150.728,25.183 150.369,25.337 C 150.01,25.491 149.702,25.72 149.445,26.023 C 149.188,26.326 149.06,26.725 149.06,27.22 C 149.06,27.612 149.177,27.971 149.41,28.298 C 149.643,28.625 149.975,28.884 150.404,29.075 C 150.833,29.266 151.323,29.362 151.874,29.362 C 152.723,29.362 153.409,29.147 153.932,28.718 C 154.455,28.289 154.735,27.701 154.772,26.954 L 153.498,26.954 C 153.47,27.355 153.309,27.677 153.015,27.92 C 152.721,28.163 152.327,28.284 151.832,28.284 C 151.375,28.284 151.011,28.186 150.74,27.99 C 150.469,27.794 150.334,27.537 150.334,27.22 C 150.334,26.968 150.416,26.76 150.579,26.597 C 150.742,26.434 150.948,26.303 151.195,26.205 C 151.442,26.107 151.785,25.997 152.224,25.876 C 152.775,25.727 153.223,25.58 153.568,25.435 C 153.913,25.29 154.21,25.073 154.457,24.784 C 154.704,24.495 154.833,24.117 154.842,23.65 C 154.842,23.23 154.725,22.852 154.492,22.516 C 154.259,22.18 153.93,21.916 153.505,21.725 C 153.08,21.534 152.593,21.438 152.042,21.438 C 151.454,21.438 150.927,21.538 150.46,21.739 Z M 43.108,21.564 L 43.108,31.252 L 44.48,31.252 L 48.064,23.244 L 51.648,31.252 L 53.006,31.252 L 53.006,21.564 L 51.732,21.564 L 51.732,28.788 L 48.512,21.564 L 47.616,21.564 L 44.382,28.802 L 44.382,21.564 L 43.108,21.564 Z M 64.621,21.564 L 64.621,29.236 L 65.895,29.236 L 65.895,28.144 C 66.147,28.536 66.49,28.839 66.924,29.054 C 67.358,29.269 67.836,29.376 68.359,29.376 C 69.292,29.376 70.048,29.094 70.627,28.529 C 71.206,27.964 71.495,27.15 71.495,26.086 L 71.495,21.564 L 70.235,21.564 L 70.235,25.904 C 70.235,26.669 70.044,27.255 69.661,27.661 C 69.278,28.067 68.756,28.27 68.093,28.27 C 67.421,28.27 66.887,28.06 66.49,27.64 C 66.093,27.22 65.895,26.609 65.895,25.806 L 65.895,21.564 L 64.621,21.564 Z M 74.395,22.054 C 74.04,22.381 73.863,22.917 73.863,23.664 L 73.863,28.186 L 72.869,28.186 L 72.869,29.236 L 73.863,29.236 L 73.863,31.168 L 75.137,31.168 L 75.137,29.236 L 77.139,29.236 L 77.139,28.186 L 75.137,28.186 L 75.137,23.664 C 75.137,23.291 75.216,23.027 75.375,22.873 C 75.534,22.719 75.809,22.642 76.201,22.642 L 77.139,22.642 L 77.139,21.564 L 75.991,21.564 C 75.282,21.564 74.75,21.727 74.395,22.054 Z M 87.358,21.564 L 87.358,29.236 L 88.632,29.236 L 88.632,28.144 C 88.884,28.536 89.227,28.839 89.661,29.054 C 90.095,29.269 90.573,29.376 91.096,29.376 C 92.029,29.376 92.785,29.094 93.364,28.529 C 93.943,27.964 94.232,27.15 94.232,26.086 L 94.232,21.564 L 92.972,21.564 L 92.972,25.904 C 92.972,26.669 92.781,27.255 92.398,27.661 C 92.015,28.067 91.493,28.27 90.83,28.27 C 90.158,28.27 89.624,28.06 89.227,27.64 C 88.83,27.22 88.632,26.609 88.632,25.806 L 88.632,21.564 L 87.358,21.564 Z M 96.32,21.564 L 96.32,29.236 L 97.594,29.236 L 97.594,21.564 L 96.32,21.564 Z M 99.765,21.564 L 99.765,29.236 L 101.039,29.236 L 101.039,28.13 C 101.291,28.531 101.629,28.839 102.054,29.054 C 102.479,29.269 102.948,29.376 103.461,29.376 C 104.105,29.376 104.674,29.231 105.169,28.942 C 105.664,28.653 106.032,28.228 106.275,27.668 C 106.49,28.209 106.844,28.629 107.339,28.928 C 107.834,29.227 108.384,29.376 108.991,29.376 C 109.588,29.376 110.12,29.252 110.587,29.005 C 111.054,28.758 111.422,28.387 111.693,27.892 C 111.964,27.397 112.099,26.795 112.099,26.086 L 112.099,21.564 L 110.839,21.564 L 110.839,25.904 C 110.839,26.669 110.65,27.255 110.272,27.661 C 109.894,28.067 109.383,28.27 108.739,28.27 C 108.076,28.27 107.549,28.058 107.157,27.633 C 106.765,27.208 106.569,26.595 106.569,25.792 L 106.569,21.564 L 105.309,21.564 L 105.309,25.904 C 105.309,26.669 105.12,27.255 104.742,27.661 C 104.364,28.067 103.853,28.27 103.209,28.27 C 102.546,28.27 102.019,28.058 101.627,27.633 C 101.235,27.208 101.039,26.595 101.039,25.792 L 101.039,21.564 L 99.765,21.564 Z M 114.182,21.564 L 114.182,29.236 L 115.456,29.236 L 115.456,21.564 L 114.182,21.564 Z M 126.309,21.564 L 126.309,29.236 L 127.583,29.236 L 127.583,28.144 C 127.835,28.536 128.178,28.839 128.612,29.054 C 129.046,29.269 129.524,29.376 130.047,29.376 C 130.98,29.376 131.736,29.094 132.315,28.529 C 132.894,27.964 133.183,27.15 133.183,26.086 L 133.183,21.564 L 131.923,21.564 L 131.923,25.904 C 131.923,26.669 131.732,27.255 131.349,27.661 C 130.966,28.067 130.444,28.27 129.781,28.27 C 129.109,28.27 128.575,28.06 128.178,27.64 C 127.781,27.22 127.583,26.609 127.583,25.806 L 127.583,21.564 L 126.309,21.564 Z M 136.083,22.054 C 135.728,22.381 135.551,22.917 135.551,23.664 L 135.551,28.186 L 134.557,28.186 L 134.557,29.236 L 135.551,29.236 L 135.551,31.168 L 136.825,31.168 L 136.825,29.236 L 138.827,29.236 L 138.827,28.186 L 136.825,28.186 L 136.825,23.664 C 136.825,23.291 136.904,23.027 137.063,22.873 C 137.222,22.719 137.497,22.642 137.889,22.642 L 138.827,22.642 L 138.827,21.564 L 137.679,21.564 C 136.97,21.564 136.438,21.727 136.083,22.054 Z M 59.885,22.901 C 60.282,23.13 60.597,23.461 60.83,23.895 C 61.063,24.329 61.18,24.835 61.18,25.414 C 61.18,25.993 61.063,26.497 60.83,26.926 C 60.597,27.355 60.282,27.684 59.885,27.913 C 59.488,28.142 59.052,28.256 58.576,28.256 C 58.1,28.256 57.666,28.144 57.274,27.92 C 56.882,27.696 56.569,27.369 56.336,26.94 C 56.103,26.511 55.986,26.007 55.986,25.428 C 55.986,24.84 56.103,24.329 56.336,23.895 C 56.569,23.461 56.882,23.13 57.274,22.901 C 57.666,22.672 58.1,22.558 58.576,22.558 C 59.052,22.558 59.488,22.672 59.885,22.901 Z M 144.998,22.88 C 145.399,23.095 145.724,23.417 145.971,23.846 C 146.218,24.275 146.342,24.798 146.342,25.414 C 146.342,26.03 146.221,26.553 145.978,26.982 C 145.735,27.411 145.418,27.731 145.026,27.941 C 144.634,28.151 144.209,28.256 143.752,28.256 C 143.285,28.256 142.858,28.151 142.471,27.941 C 142.084,27.731 141.773,27.411 141.54,26.982 C 141.307,26.553 141.19,26.03 141.19,25.414 C 141.19,24.789 141.304,24.261 141.533,23.832 C 141.762,23.403 142.067,23.083 142.45,22.873 C 142.833,22.663 143.253,22.558 143.71,22.558 C 144.167,22.558 144.597,22.665 144.998,22.88 Z M 84.038,27.213 C 83.823,27.563 83.532,27.829 83.163,28.011 C 82.794,28.193 82.386,28.284 81.938,28.284 C 81.294,28.284 80.746,28.079 80.293,27.668 C 79.84,27.257 79.581,26.688 79.516,25.96 L 84.36,25.96 C 84.36,26.445 84.253,26.863 84.038,27.213 Z M 122.989,27.213 C 122.774,27.563 122.483,27.829 122.114,28.011 C 121.745,28.193 121.337,28.284 120.889,28.284 C 120.245,28.284 119.697,28.079 119.244,27.668 C 118.791,27.257 118.532,26.688 118.467,25.96 L 123.311,25.96 C 123.311,26.445 123.204,26.863 122.989,27.213 Z M 96.362,30.734 C 96.194,30.902 96.11,31.107 96.11,31.35 C 96.11,31.593 96.194,31.798 96.362,31.966 C 96.53,32.134 96.735,32.218 96.978,32.218 C 97.211,32.218 97.41,32.134 97.573,31.966 C 97.736,31.798 97.818,31.593 97.818,31.35 C 97.818,31.107 97.736,30.902 97.573,30.734 C 97.41,30.566 97.211,30.482 96.978,30.482 C 96.735,30.482 96.53,30.566 96.362,30.734 Z M 114.224,30.734 C 114.056,30.902 113.972,31.107 113.972,31.35 C 113.972,31.593 114.056,31.798 114.224,31.966 C 114.392,32.134 114.597,32.218 114.84,32.218 C 115.073,32.218 115.272,32.134 115.435,31.966 C 115.598,31.798 115.68,31.593 115.68,31.35 C 115.68,31.107 115.598,30.902 115.435,30.734 C 115.272,30.566 115.073,30.482 114.84,30.482 C 114.597,30.482 114.392,30.566 114.224,30.734 Z" stroke-linejoin="round" fill-rule="nonzero" stroke="none" stroke-linecap="round" fill="#fce181" stroke-width="0.375" marker-start="none" marker-end="none" stroke-miterlimit="79.8403193612775"/>
   </g>
  </g>
 </g>
</svg>
